<svg xmlns="http://www.w3.org/2000/svg" xmlns:xlink="http://www.w3.org/1999/xlink" width="608" height="761" viewBox="647 162 608 761">
  <style type="text/css">#groupUser{mix-blend-mode: multiply;}</style>
  <g xmlns="http://www.w3.org/2000/svg" fill="none" fill-rule="nonzero" stroke="none" stroke-width="1" stroke-linecap="butt" stroke-linejoin="miter" stroke-miterlimit="10" stroke-dasharray="" stroke-dashoffset="0" font-family="none" font-weight="none" font-size="none" text-anchor="none" style="mix-blend-mode: normal">
    <g>
      <g id="groupY" stroke="none">
        <path d="M1020.76688,162.9879l82.32124,10.49734l97.42267,186.74213l-97.05434,155.61845l-153.77681,39.77939l-95.7652,0.36833l-0.36833,248.98951l78.26963,28.72956l-1.65747,27.44041l-140.70117,-2.57829l-137.20206,2.0258l-3.31495,-26.70376l78.82212,-27.9929l-1.28915,-589.14013l-78.82212,-27.25625l2.94662,-26.88792 M853.91444,500.56022l81.03209,15.2856l123.7581,-85.63619l38.12191,-70.71891l-37.2011,-70.71891l-125.23141,-82.5054l-80.4796,11.04983" fill="#0099cc"></path>
      </g>
      <g id="groupPaths" fill="none" stroke="#ff0080">
        <path d="M1075.60516,225.21531l-54.83828,-62.22741" style="mix-blend-mode: multiply"></path>
        <path d="M1157.92639,235.71265l-54.83828,-62.22741" style="mix-blend-mode: multiply"></path>
        <path d="M1255.34906,422.45478l-54.83828,-62.22741" style="mix-blend-mode: multiply"></path>
        <path d="M1158.29472,578.07323l-54.83828,-62.22741" style="mix-blend-mode: multiply"></path>
        <path d="M1004.51791,617.85262l-54.83828,-62.22741" style="mix-blend-mode: multiply"></path>
        <path d="M908.75272,618.22094l-54.83828,-62.22741" style="mix-blend-mode: multiply"></path>
        <path d="M908.38439,867.21046l-54.83828,-62.22741" style="mix-blend-mode: multiply"></path>
        <path d="M986.65402,895.94002l-54.83828,-62.22741" style="mix-blend-mode: multiply"></path>
        <path d="M984.99655,923.38043l-54.83828,-62.22741" style="mix-blend-mode: multiply"></path>
        <path d="M844.29537,920.80213l-54.83828,-62.22741" style="mix-blend-mode: multiply"></path>
        <path d="M707.09331,922.82794l-54.83828,-62.22741" style="mix-blend-mode: multiply"></path>
        <path d="M703.77836,896.12418l-54.83828,-62.22741" style="mix-blend-mode: multiply"></path>
        <path d="M782.60049,868.13128l-54.83828,-62.22741" style="mix-blend-mode: multiply"></path>
        <path d="M781.31134,278.99115l-54.83828,-62.22741" style="mix-blend-mode: multiply"></path>
        <path d="M702.48922,251.7349l-54.83828,-62.22741" style="mix-blend-mode: multiply"></path>
        <path d="M705.43584,224.84698l-54.83828,-62.22741" style="mix-blend-mode: multiply"></path>
        <path d="M908.75272,562.78763l-54.83828,-62.22741"></path>
        <path d="M989.78481,578.07323l-54.83828,-62.22741"></path>
        <path d="M1113.54291,492.43704l-54.83828,-62.22741"></path>
        <path d="M1151.66482,421.71813l-54.83828,-62.22741"></path>
        <path d="M1114.46373,350.99921l-54.83828,-62.22741"></path>
        <path d="M989.23231,268.49381l-54.83828,-62.22741"></path>
        <path d="M908.75272,279.54364l-54.83828,-62.22741"></path>
      </g>
      <g id="groupUser" stroke="none" opacity="0.85" style="mix-blend-mode: multiply">
        <path d="M1075.60516,225.21531l82.32124,10.49734l97.42267,186.74213l-97.05434,155.61845l-153.77681,39.77939l-95.7652,0.36833l-0.36833,248.98951l78.26963,28.72956l-1.65747,27.44041l-140.70117,-2.57829l-137.20206,2.0258l-3.31495,-26.70376l78.82212,-27.9929l-1.28915,-589.14013l-78.82212,-27.25625l2.94662,-26.88792z M908.75272,562.78763l81.03209,15.2856l123.7581,-85.63619l38.12191,-70.71891l-37.2011,-70.71891l-125.23141,-82.5054l-80.4796,11.04983z" fill="#ff0080" style="mix-blend-mode: normal"></path>
      </g>
    </g>
  </g>
</svg>